<svg width="47" height="47" viewBox="0 0 47 47" fill="none" xmlns="http://www.w3.org/2000/svg">
<path fill-rule="evenodd" clip-rule="evenodd" d="M23.5 0C27.5768 0 31.4111 1.03812 34.7531 2.86444L2.27301 13.4043C6.04958 5.47794 14.1351 0 23.5 0ZM1.24118 15.9439C0.436434 18.3152 0 20.8566 0 23.5C0 31.937 4.44613 39.3355 11.1232 43.4804L11.3336 43.4121L17.3907 22.3714L1.24118 15.9439ZM17.958 24.0158L12.4814 43.0396L23.4195 39.4902L17.958 24.0158ZM18.6092 22.8563L23.8339 37.6596L25.4859 27.4719L26.3907 27.0461L28.5302 31.5924L29.6706 27.2588L18.6092 22.8563ZM28.1339 33.0986L28.1338 33.0986L26.2394 29.0729L24.6129 39.1029L34.0337 36.0458L34.0248 35.9389L30.401 28.4125L29.1009 33.3531L28.1339 33.0986ZM33.4296 28.7958L33.7925 33.1513L31.26 27.8913L33.5147 28.7887L33.4296 28.7958ZM43.7922 32.8792L35.0108 35.7288L34.4639 29.1665L43.7922 32.8792ZM23.5 47C19.9434 47 16.5713 46.2099 13.5497 44.7956L44.0568 34.896C40.0464 42.1149 32.3437 47 23.5 47ZM45.6198 31.454C46.5132 28.9699 47 26.2918 47 23.5C47 15.5352 43.0376 8.49578 36.9764 4.24563L4.0793 14.9209L45.6198 31.454ZM31.4437 13.9014C31.4437 14.9982 30.5546 15.8873 29.4578 15.8873C28.361 15.8873 27.4718 14.9982 27.4718 13.9014C27.4718 12.8046 28.361 11.9155 29.4578 11.9155C30.5546 11.9155 31.4437 12.8046 31.4437 13.9014ZM25.3099 13.3458C25.8268 12.6136 27.6006 11.0571 30.1986 11.283L30.3718 9.29052C26.8796 8.98685 24.4831 11.0491 23.676 12.1925L25.3099 13.3458Z" fill="#B5AB9A"/>
</svg>
